<?xml version="1.0" standalone="no"?>
<!DOCTYPE svg PUBLIC "-//W3C//DTD SVG 20010904//EN"
 "http://www.w3.org/TR/2001/REC-SVG-20010904/DTD/svg10.dtd">
<svg version="1.0" xmlns="http://www.w3.org/2000/svg"
 width="1024.000000pt" height="1024.000000pt" viewBox="0 0 1024.000000 1024.000000"
 preserveAspectRatio="xMidYMid meet">

<g transform="translate(0.000000,1024.000000) scale(0.100000,-0.100000)"
fill="#000000" stroke="none">
<path d="M3295 6461 c-326 -139 -772 -359 -1195 -589 -658 -358 -833 -518
-923 -847 -32 -116 -31 -343 2 -465 75 -281 276 -528 525 -646 142 -68 204
-43 481 188 166 138 229 183 305 217 143 65 225 -34 174 -210 -9 -30 -37 -96
-64 -146 -53 -101 -50 -109 23 -72 125 64 316 214 404 318 165 194 228 358
173 448 -23 38 -32 41 -175 46 -86 3 -120 9 -152 25 -50 26 -89 71 -103 120
-14 51 -13 71 8 139 22 69 367 744 464 908 126 213 166 313 203 510 26 138 35
135 -150 56z m-649 -855 c16 -42 -257 -593 -404 -816 -95 -144 -248 -301 -336
-345 -177 -88 -316 -5 -345 206 -9 65 0 164 20 229 46 146 191 311 384 439
189 124 565 299 648 301 15 0 30 -6 33 -14z"/>
<path d="M8830 5989 c-30 -56 -56 -105 -58 -110 -2 -5 29 -9 70 -9 l73 0 70
82 c39 45 81 95 93 110 l24 28 -109 0 -108 0 -55 -101z"/>
<path d="M4077 5779 c-203 -48 -322 -267 -259 -476 40 -130 129 -211 261 -239
152 -31 294 20 372 133 17 24 29 49 27 55 -2 6 -35 23 -73 38 l-70 28 -38 -44
c-44 -50 -90 -68 -162 -62 -65 5 -106 34 -135 94 -30 62 -26 191 9 247 71 116
230 111 311 -10 l15 -23 73 27 c39 14 72 30 72 35 0 4 -11 25 -24 46 -80 125
-232 186 -379 151z"/>
<path d="M4844 5780 c-188 -38 -309 -219 -276 -417 20 -122 80 -207 184 -264
61 -33 67 -34 173 -34 92 0 118 4 157 22 201 92 270 360 143 549 -54 78 -127
124 -230 143 -66 12 -92 12 -151 1z m161 -159 c77 -34 115 -104 115 -206 -1
-93 -68 -186 -145 -201 -127 -23 -229 52 -242 178 -18 174 127 295 272 229z"/>
<path d="M5725 5784 c-63 -16 -92 -30 -126 -61 l-39 -35 0 41 0 41 -80 0 -80
0 0 -485 0 -486 83 3 82 3 0 173 c0 94 2 172 3 172 2 0 22 -16 45 -35 52 -45
103 -58 197 -53 174 10 292 139 307 333 16 212 -114 377 -309 390 -35 2 -72 2
-83 -1z m86 -154 c43 -12 97 -63 117 -110 21 -51 19 -147 -6 -202 -30 -68 -80
-101 -158 -106 -38 -3 -77 1 -94 8 -119 49 -150 254 -53 361 49 54 115 71 194
49z"/>
<path d="M6495 5784 c-51 -13 -114 -40 -153 -66 -89 -61 -149 -196 -139 -317
10 -138 74 -240 189 -301 56 -31 73 -35 158 -38 120 -5 185 17 263 88 194 177
131 520 -111 610 -56 21 -167 34 -207 24z m177 -179 c99 -66 118 -238 35 -332
-39 -44 -82 -63 -142 -63 -115 0 -195 88 -195 216 0 169 167 268 302 179z"/>
<path d="M7285 5784 c-11 -3 -36 -10 -56 -15 -79 -20 -167 -103 -185 -173 l-6
-26 85 0 c78 0 86 2 100 24 22 32 97 60 143 53 67 -11 124 -70 124 -129 l0
-28 -97 0 c-196 -1 -293 -30 -341 -103 -23 -34 -27 -51 -27 -106 1 -140 92
-221 249 -221 83 0 125 13 174 55 l41 35 3 -37 3 -38 78 0 78 0 0 243 c0 160
-5 257 -13 284 -17 57 -87 131 -149 157 -50 22 -163 35 -204 25z m205 -429 c0
-27 -30 -89 -56 -116 -77 -80 -234 -50 -234 44 0 64 46 85 188 86 85 1 102 -2
102 -14z"/>
<path d="M7790 5695 l0 -75 191 -2 191 -3 -190 -200 -191 -200 0 -72 -1 -73
300 0 300 0 0 75 0 75 -196 0 -195 0 195 208 196 207 0 68 0 67 -300 0 -300 0
0 -75z"/>
<path d="M8502 5513 c5 -283 7 -297 70 -368 44 -51 101 -77 181 -83 81 -6 142
14 199 66 l39 36 -3 -45 -3 -44 83 -3 82 -3 0 351 0 350 -82 0 -83 0 3 -180
c4 -211 -6 -276 -49 -325 -58 -66 -165 -73 -223 -16 l-31 31 -3 245 -3 245
-90 0 -91 0 4 -257z"/>
<path d="M3837 4823 c-4 -3 -7 -224 -7 -490 l0 -483 90 0 90 0 0 490 0 490
-83 0 c-46 0 -87 -3 -90 -7z"/>
<path d="M4910 4335 l0 -485 86 0 87 0 -5 45 -5 44 43 -37 c23 -21 60 -44 82
-50 52 -16 168 -14 215 2 170 61 258 271 197 467 -29 94 -81 157 -164 199 -63
32 -76 35 -155 35 -91 -1 -145 -19 -185 -64 -11 -12 -22 -21 -25 -21 -3 0 -5
79 -3 175 l4 175 -86 0 -86 0 0 -485z m427 60 c47 -20 71 -41 93 -85 43 -83
31 -203 -26 -264 -33 -35 -98 -65 -140 -66 -78 0 -151 51 -180 127 -25 64 -15
170 20 224 47 71 150 99 233 64z"/>
<path d="M4374 4549 c-93 -21 -192 -107 -210 -181 l-6 -28 77 0 c74 0 79 1
116 34 91 83 234 45 246 -66 l5 -45 -148 -5 c-162 -5 -205 -16 -258 -66 -77
-72 -76 -209 1 -284 49 -48 108 -68 200 -68 84 0 124 13 176 60 l37 32 0 -41
0 -41 76 0 75 0 -3 263 -3 262 -28 47 c-61 105 -211 159 -353 127z m223 -441
c-10 -75 -67 -128 -146 -136 -63 -6 -107 11 -127 49 -26 52 3 104 68 119 18 4
73 8 122 9 l89 1 -6 -42z"/>
<path d="M5901 4550 c-67 -14 -129 -48 -159 -88 -37 -48 -44 -160 -13 -209 32
-50 93 -84 218 -120 126 -36 153 -52 153 -93 0 -54 -64 -81 -148 -60 -52 12
-122 62 -122 86 0 8 -2 14 -5 14 -15 0 -135 -66 -135 -74 0 -16 41 -69 72 -95
87 -71 257 -94 372 -51 65 25 122 83 132 135 10 55 -1 133 -23 163 -41 55 -87
77 -261 123 -63 16 -87 28 -99 46 -47 71 85 120 177 66 14 -8 34 -26 46 -39
l20 -25 68 31 67 30 -21 29 c-73 104 -212 157 -339 131z"/>
</g>
</svg>
